<svg xmlns="http://www.w3.org/2000/svg" width="1440" height="1000" viewBox="0 0 1440 1000" role="img" aria-labelledby="title"><title id="title">把匹配点写成自然的开场白 · Echo 1.0 功能演示</title><style>text{font-family:'Microsoft YaHei',system-ui,sans-serif}*{box-sizing:border-box}</style><rect x="0" y="0" width="1440" height="1000" rx="28" fill="#f4f2e9" stroke="none"/><text x="64" y="68" font-size="22" fill="#6c8177" font-weight="600">回声 ECHO / 1.0</text><text x="64" y="125" font-size="39" fill="#304c46" font-weight="600">把匹配点写成自然的开场白</text><text x="64" y="170" font-size="24" fill="#63766d" font-weight="400">已有资料直接用于生成；你可以查看检查过程，再按自己的习惯修改。</text><rect x="48" y="208" width="1344" height="718" rx="24" fill="#fbfcf8" stroke="#d4dfd2"/><rect x="76" y="232" width="130" height="51" rx="25" fill="#fbfcf8" stroke="none"/><text x="115" y="267" font-size="25" fill="#6a7b6d" font-weight="400">需求</text><rect x="221" y="232" width="130" height="51" rx="25" fill="#fbfcf8" stroke="none"/><text x="260" y="267" font-size="25" fill="#6a7b6d" font-weight="400">采集</text><rect x="366" y="232" width="130" height="51" rx="25" fill="#406653" stroke="none"/><text x="405" y="267" font-size="25" fill="#fff" font-weight="400">判断</text><rect x="511" y="232" width="130" height="51" rx="25" fill="#fbfcf8" stroke="none"/><text x="550" y="267" font-size="25" fill="#6a7b6d" font-weight="400">记录</text><rect x="656" y="232" width="130" height="51" rx="25" fill="#fbfcf8" stroke="none"/><text x="695" y="267" font-size="25" fill="#6a7b6d" font-weight="400">总结</text><rect x="79" y="313" width="1282" height="113" rx="18" fill="#fff" stroke="#dbe3da"/><text x="110" y="355" font-size="27" fill="#304c46" font-weight="600">生成处理 / 采购专员 · 南禾贸易</text><text x="110" y="396" font-size="23" fill="#63766d" font-weight="400">由候选清单进入 · 使用已保存的岗位资料与能力档案</text><rect x="79" y="450" width="420" height="126" rx="18" fill="#edf3e9" stroke="#dbe3da"/><text x="104" y="492" font-size="26" fill="#406653" font-weight="600">01  策略</text><text x="104" y="543" font-size="22" fill="#304c46" font-weight="400">选出岗位要求对应的真实经历</text><rect x="510" y="450" width="420" height="126" rx="18" fill="#edf3e9" stroke="#dbe3da"/><text x="535" y="492" font-size="26" fill="#406653" font-weight="600">02  生成</text><text x="535" y="543" font-size="22" fill="#304c46" font-weight="400">组织亮点，起草一段招呼语</text><rect x="941" y="450" width="420" height="126" rx="18" fill="#edf3e9" stroke="#dbe3da"/><text x="966" y="492" font-size="26" fill="#406653" font-weight="600">03  检验与修改</text><text x="966" y="543" font-size="22" fill="#304c46" font-weight="400">核对事实、匹配度与表达</text><rect x="79" y="600" width="821" height="267" rx="18" fill="#fff" stroke="#dbe3da"/><text x="110" y="644" font-size="26" fill="#304c46" font-weight="600">可编辑草稿</text><text x="110" y="692" font-size="25" fill="#304c46" font-weight="400">您好，我有采购文件编制和供应商沟通经历，</text><text x="110" y="731" font-size="25" fill="#304c46" font-weight="400">与贵司采购专员的需求比较契合。曾参与</text><text x="110" y="770" font-size="25" fill="#304c46" font-weight="400">采购材料整理和合同跟进，期待进一步沟通。</text><text x="110" y="809" font-size="25" fill="#304c46" font-weight="400">我的简历如下。</text><rect x="925" y="600" width="436" height="267" rx="18" fill="#fff" stroke="#dbe3da"/><text x="954" y="645" font-size="26" fill="#304c46" font-weight="600">查看本次检查</text><text x="954" y="691" font-size="23" fill="#304c46" font-weight="400">真实性 · 是否夸大经历</text><text x="954" y="730" font-size="23" fill="#304c46" font-weight="400">岗位匹配 · 亮点是否相关</text><text x="954" y="769" font-size="23" fill="#304c46" font-weight="400">表达 · 简洁、自然</text><rect x="952" y="808" width="379" height="44" rx="22" fill="#e8f0e7" stroke="none"/><text x="970" y="837" font-size="21" fill="#486b52" font-weight="400">复制话术并打开岗位</text><text x="64" y="969" font-size="19" fill="#7e8c7f" font-weight="400">功能演示 · 以 1.0 的页面与操作为依据</text></svg>